<svg width="308" height="186" viewBox="0 0 308 186" fill="none" xmlns="http://www.w3.org/2000/svg">
<path d="M305.365 41.8545H294.829" stroke="#263238" stroke-width="4.19254" stroke-linecap="round" stroke-linejoin="round"/>
<path d="M223.684 41.8545H213.147" stroke="#263238" stroke-width="4.19254" stroke-linecap="round" stroke-linejoin="round"/>
<path d="M294.828 14.1934L288.9 18.8018" stroke="#263238" stroke-width="4.19254" stroke-linecap="round" stroke-linejoin="round"/>
<path d="M225.012 14.1934L230.939 18.8018" stroke="#263238" stroke-width="4.19254" stroke-linecap="round" stroke-linejoin="round"/>
<path d="M271.111 3L270.452 12.8765" stroke="#263238" stroke-width="4.19254" stroke-linecap="round" stroke-linejoin="round"/>
<path d="M248.052 4.30957L249.371 12.8758" stroke="#263238" stroke-width="4.19254" stroke-linecap="round" stroke-linejoin="round"/>
<path d="M233.113 29.5225H289.986V78.5975H233.113V29.5225Z" fill="white" stroke="#263238" stroke-width="4.19254" stroke-linecap="round" stroke-linejoin="round"/>
<path d="M268.87 29.5225H279.596V78.5975H268.87V29.5225Z" fill="#004AAD" stroke="#263238" stroke-width="4.19254" stroke-linecap="round" stroke-linejoin="round"/>
<path d="M233.112 29.5225H258.043V78.5975H233.112V29.5225Z" fill="white" stroke="#263238" stroke-width="4.19254" stroke-linecap="round" stroke-linejoin="round"/>
<path d="M265.558 25.5183L273.898 21.9038C274.103 21.8864 274.308 21.8864 274.513 21.9038L274.648 21.8315H283.043L276.501 24.9038C276.468 25.3634 276.398 25.8197 276.293 26.2683C276.074 26.9539 275.687 27.574 275.168 28.0726C274.649 28.5712 274.014 28.9324 273.32 29.1237L273.266 29.3857H272.362L257.841 29.5845C257.841 29.5845 261.6 27.5153 265.558 25.5183Z" fill="#004AAD" stroke="#263238" stroke-width="4.19254" stroke-linecap="round" stroke-linejoin="round"/>
<path d="M266.234 29.5222C266.234 29.5222 275.27 24.6518 280.167 22.5102C285.065 20.3687 285.237 23.6759 284.685 26.206C284.134 28.7361 280.791 29.3235 280.791 29.3235L266.234 29.5222Z" fill="#004AAD" stroke="#263238" stroke-width="4.19254" stroke-linecap="round" stroke-linejoin="round"/>
<path d="M264.078 25.9663H267.268C267.722 25.9651 268.173 26.0538 268.593 26.2273C269.014 26.4008 269.396 26.6557 269.718 26.9773C270.039 27.2989 270.294 27.6809 270.467 28.1013C270.641 28.5218 270.73 28.9723 270.729 29.4272H260.617C260.617 28.5093 260.982 27.629 261.631 26.98C262.28 26.3309 263.16 25.9663 264.078 25.9663Z" fill="#004AAD" stroke="#263238" stroke-width="4.19254" stroke-linecap="round" stroke-linejoin="round"/>
<path d="M244.144 21.8679H251.518L252.476 25.4823C256.433 27.4793 260.156 29.4853 260.156 29.4853L245.635 29.2865H244.732L244.686 29.0244C243.991 28.8345 243.354 28.4739 242.833 27.9752C242.312 27.4765 241.924 26.8557 241.705 26.169C241.262 24.1088 241.316 21.5154 244.144 21.8679Z" fill="#004AAD" stroke="#263238" stroke-width="4.19254" stroke-linecap="round" stroke-linejoin="round"/>
<path d="M268.869 29.5222C268.869 29.5222 259.833 24.6518 254.926 22.5102C250.02 20.3687 249.866 23.6759 250.454 26.206C251.041 28.7361 254.348 29.3235 254.348 29.3235L268.869 29.5222Z" fill="#004AAD" stroke="#263238" stroke-width="4.19254" stroke-linecap="round" stroke-linejoin="round"/>
<path d="M288.132 82.0547C288.132 82.0547 292.885 78.892 291.846 77.889C290.806 76.886 285.701 79.0908 284.535 80.5998C283.37 82.1089 283.957 83.1209 284.924 83.2113C285.891 83.3016 288.132 82.0547 288.132 82.0547Z" fill="white" stroke="#263238" stroke-width="4.19254" stroke-linecap="round" stroke-linejoin="round"/>
<path d="M284.112 78.3674C284.112 78.3674 291.477 74.5451 289.706 78.0783C287.934 81.6114 283.525 84.8553 281.754 85.7409C279.983 86.6264 270.26 86.3282 270.26 86.3282C270.26 86.3282 272.067 83.0843 273.802 82.1987C275.537 81.3132 284.112 78.3674 284.112 78.3674Z" fill="white" stroke="#263238" stroke-width="4.19254" stroke-linecap="round" stroke-linejoin="round"/>
<path d="M277.043 78.3691C277.043 78.3691 286.766 73.0739 287.064 75.1342C287.362 77.1944 279.401 83.9715 276.754 85.1462C274.676 85.9146 272.481 86.3152 270.266 86.3299L277.043 78.3691Z" fill="white" stroke="#263238" stroke-width="4.19254" stroke-linecap="round" stroke-linejoin="round"/>
<path d="M238.751 87.4808C238.751 87.4808 242.284 79.2309 244.94 78.0562C247.597 76.8815 271.452 79.2309 271.452 79.2309C271.452 79.2309 282.946 69.8062 282.061 74.514C281.175 79.2218 273.811 84.8333 271.751 86.261C269.69 87.6887 254.365 87.1646 254.365 87.1646L249.648 91.5832L238.751 87.4808Z" fill="white" stroke="#263238" stroke-width="4.19254" stroke-linecap="round" stroke-linejoin="round"/>
<path d="M93.6993 100.722C94.251 101.791 94.3986 103.023 94.115 104.192C93.6525 105.346 92.9432 106.386 92.0367 107.237L91.3409 111.538L81.9072 111.954L85.7927 97.4961L93.6993 100.722Z" fill="white" stroke="#263238" stroke-width="4.19254" stroke-linecap="round" stroke-linejoin="round"/>
<path d="M100.111 73.924C100.111 73.924 96.1806 99.4962 95.5933 101.032C95.0059 102.568 90.4788 104.376 88.8975 103.59C87.3162 102.803 90.0812 99.0715 90.0812 99.0715L89.2951 74.4843C89.2951 74.4843 95.9818 71.9361 100.111 73.924Z" fill="#263238" stroke="#263238" stroke-width="4.19254" stroke-linecap="round" stroke-linejoin="round"/>
<path d="M89.0992 81.9662C89.0992 81.9662 94.6112 81.5776 94.81 82.5626C95.0088 83.5475 94.9998 86.8818 94.0148 87.2794C93.0299 87.677 86.3432 88.2644 85.1685 87.8668C84.7751 87.6671 84.4261 87.3902 84.1423 87.0526C83.8585 86.7149 83.6457 86.3235 83.5166 85.9017C83.3875 85.4799 83.3449 85.0364 83.3912 84.5978C83.4374 84.1591 83.5717 83.7343 83.7859 83.3487C84.9697 81.5776 89.0992 81.9662 89.0992 81.9662Z" fill="white" stroke="#263238" stroke-width="4.19254" stroke-linecap="round" stroke-linejoin="round"/>
<path d="M89.0969 88.263C89.0969 88.263 94.4101 88.263 94.2114 89.4377C94.0126 90.6124 94.6089 93.1786 92.4041 93.5762C89.7884 93.9012 87.1387 93.8342 84.5427 93.3774C84.1008 93.2954 83.6922 93.0869 83.3665 92.7773C83.0407 92.4676 82.8119 92.0701 82.7076 91.6329C82.6033 91.1957 82.6281 90.7377 82.7791 90.3143C82.93 89.891 83.2005 89.5205 83.5578 89.2479C85.1662 87.8654 89.0969 88.263 89.0969 88.263Z" fill="white" stroke="#263238" stroke-width="4.19254" stroke-linecap="round" stroke-linejoin="round"/>
<path d="M97.6261 89.7745C97.6261 89.7745 98.3038 84.8228 99.9032 84.9583C101.096 85.0577 103.942 85.9613 103.68 88.139C103.231 90.7386 102.39 93.2551 101.186 95.6028C100.978 96.0015 100.659 96.3313 100.267 96.552C99.8755 96.7727 99.428 96.8749 98.9792 96.8462C98.5304 96.8175 98.0996 96.6591 97.7391 96.3903C97.3786 96.1214 97.104 95.7537 96.9484 95.3317C96.09 93.4251 97.6261 89.7745 97.6261 89.7745Z" fill="white" stroke="#263238" stroke-width="4.19254" stroke-linecap="round" stroke-linejoin="round"/>
<path d="M88.7982 93.5694C88.7982 93.5694 93.6054 93.5694 93.4247 94.708C93.244 95.8465 93.7862 98.3224 91.8253 98.6838C89.4566 98.9937 87.0538 98.9297 84.7049 98.4941C84.2932 98.3941 83.9176 98.1813 83.6203 97.8795C83.323 97.5778 83.1157 97.1991 83.0218 96.786C82.928 96.3729 82.9512 95.9418 83.0888 95.5412C83.2265 95.1405 83.4733 94.7863 83.8013 94.5182C85.238 93.1989 88.7982 93.5694 88.7982 93.5694Z" fill="white" stroke="#263238" stroke-width="4.19254" stroke-linecap="round" stroke-linejoin="round"/>
<path d="M88.5677 97.8876C88.5677 97.8876 92.5888 97.8876 92.4352 98.7912C92.2815 99.6948 92.7333 101.8 91.0978 102.116C89.1174 102.384 87.107 102.332 85.143 101.963C84.8004 101.877 84.4884 101.697 84.242 101.444C83.9956 101.19 83.8244 100.874 83.7475 100.529C83.6707 100.184 83.6912 99.8243 83.8068 99.4903C83.9223 99.1564 84.1284 98.8612 84.4021 98.6376C85.5858 97.5713 88.5677 97.8876 88.5677 97.8876Z" fill="white" stroke="#263238" stroke-width="4.19254" stroke-linecap="round" stroke-linejoin="round"/>
<path d="M101.207 48.0266C103.756 48.0358 106.25 48.7689 108.398 50.1404C110.547 51.512 112.262 53.4657 113.343 55.7739C114.424 58.0822 114.827 60.6501 114.506 63.1786C114.184 65.7072 113.151 68.0924 111.526 70.0566C109.06 73.0295 105.02 75.162 101.171 74.918C89.3699 74.1951 58.4303 90.7673 58.4303 90.7673V32.1772C58.4303 32.1772 88.9362 48.2705 101.207 48.0266Z" fill="white" stroke="#263238" stroke-width="4.19254" stroke-linecap="round" stroke-linejoin="round"/>
<path d="M103.611 61.9493C103.611 58.9244 102.795 55.9555 101.249 53.3554C99.7036 50.7553 97.4851 48.6203 94.8277 47.1753C96.9129 47.7107 99.0545 47.9959 101.207 48.0247C103.756 48.0339 106.25 48.767 108.398 50.1386C110.547 51.5101 112.262 53.4638 113.343 55.772C114.424 58.0803 114.827 60.6482 114.506 63.1768C114.184 65.7053 113.151 68.0906 111.526 70.0547C109.06 73.0276 105.02 75.1601 101.171 74.9161C99.8035 74.8627 98.4342 74.9566 97.0867 75.1963C99.1129 73.6324 100.754 71.6256 101.885 69.3295C103.016 67.0333 103.606 64.5088 103.611 61.9493Z" fill="#004AAD" stroke="#263238" stroke-width="4.19254" stroke-linecap="round" stroke-linejoin="round"/>
<path d="M30.0051 68.3842C26.1787 52.664 35.8206 36.8183 51.5408 32.9919C67.2611 29.1656 83.1067 38.8075 86.9331 54.5277C90.7594 70.2479 81.1176 86.0936 65.3973 89.9199C49.6771 93.7463 33.8314 84.1044 30.0051 68.3842Z" fill="white" stroke="#263238" stroke-width="4.19254" stroke-linecap="round" stroke-linejoin="round"/>
<path d="M33.4957 61.4702C33.4939 66.4103 34.9572 71.24 37.7005 75.3484C40.4437 79.4569 44.3438 82.6595 48.9074 84.5512C53.4709 86.443 58.493 86.9389 63.3385 85.9762C68.1839 85.0135 72.635 82.6355 76.1288 79.143C79.6227 75.6504 82.0023 71.2001 82.9667 66.3551C83.9311 61.51 83.4371 56.4877 81.547 51.9235C79.6569 47.3592 76.4557 43.458 72.3482 40.7132C68.2408 37.9685 63.4116 36.5034 58.4715 36.5034C51.8498 36.5058 45.4998 39.1367 40.8167 43.8181C36.1337 48.4995 33.5005 54.8485 33.4957 61.4702Z" fill="#A6A6A6" stroke="#263238" stroke-width="4.19254" stroke-linecap="round" stroke-linejoin="round"/>
<path d="M58.4742 55.373V67.5989L77.685 77.4392C80.6113 73.9049 82.509 69.6338 83.1704 65.0932C83.8318 60.5526 83.2314 55.9175 81.435 51.6953L58.4742 55.373Z" fill="white" stroke="#263238" stroke-width="4.19254" stroke-linecap="round" stroke-linejoin="round"/>
<path d="M52.3735 61.4734C52.3735 62.6801 52.7315 63.8597 53.4021 64.863C54.0727 65.8662 55.0258 66.648 56.1408 67.1093C57.2559 67.5707 58.4827 67.691 59.6661 67.4549C60.8495 67.2188 61.9363 66.637 62.789 65.7831C63.6416 64.9292 64.2218 63.8415 64.4562 62.6578C64.6905 61.474 64.5684 60.2474 64.1054 59.133C63.6423 58.0186 62.8591 57.0667 61.8549 56.3976C60.8507 55.7284 59.6706 55.3722 58.4638 55.374C56.8478 55.3764 55.2987 56.0201 54.1568 57.1637C53.0149 58.3073 52.3735 59.8573 52.3735 61.4734Z" fill="white" stroke="#263238" stroke-width="4.19254" stroke-linecap="round" stroke-linejoin="round"/>
<path d="M93.321 111.926L94.2969 107.833L81.6283 106.27L81.9084 111.953L93.321 111.926Z" fill="white" stroke="#263238" stroke-width="4.19254" stroke-linecap="round" stroke-linejoin="round"/>
<path d="M250.408 93.2178L253.326 88.5371L239.88 81.7148L238.751 87.4528L250.408 93.2178Z" fill="white" stroke="#263238" stroke-width="4.19254" stroke-linecap="round" stroke-linejoin="round"/>
<path d="M168.682 86.4488C168.682 86.4488 190.297 84.0452 192.176 85.0031C194.056 85.9609 221.471 118.382 221.471 118.382L238.315 84.7681L252.492 91.003C252.492 91.003 234.727 151.545 231.845 152.232C228.962 152.918 201.592 134.711 201.592 134.711L203.273 158.72C203.273 158.72 198.23 178.888 175.893 182.729C153.556 186.569 140.363 169.283 137.481 163.518C135.335 158.923 133.49 154.193 131.96 149.358L121.631 118.861C121.631 118.861 92.5531 142.599 86.0833 145.509C79.6134 148.418 73.6044 151.039 72.8816 149.593C72.1587 148.147 79.3604 109.735 79.3604 109.735L94.7218 110.458L93.9989 116.458C93.9989 116.458 113.933 90.253 115.613 87.6416C117.294 85.0302 122.336 85.482 128.336 83.8013C134.336 82.1205 168.682 86.4488 168.682 86.4488Z" fill="#004AAD" stroke="#263238" stroke-width="4.19254" stroke-linecap="round" stroke-linejoin="round"/>
<path d="M201.576 134.709L185.483 122.7" stroke="#263238" stroke-width="4.19254" stroke-linecap="round" stroke-linejoin="round"/>
<path d="M191.248 127.263L183.088 125.817" stroke="#263238" stroke-width="4.19254" stroke-linecap="round" stroke-linejoin="round"/>
<path d="M121.613 118.86L116.092 99.4053" stroke="#263238" stroke-width="4.19254" stroke-linecap="round" stroke-linejoin="round"/>
<path d="M119.461 112.617L113.461 104.214" stroke="#263238" stroke-width="4.19254" stroke-linecap="round" stroke-linejoin="round"/>
<path d="M93.291 130.437L93.047 135.19" stroke="#263238" stroke-width="4.19254" stroke-linecap="round" stroke-linejoin="round"/>
<path d="M94.0098 116.457L93.5761 125.014" stroke="#263238" stroke-width="4.19254" stroke-linecap="round" stroke-linejoin="round"/>
<path d="M221.498 118.382L216.456 128.945" stroke="#263238" stroke-width="4.19254" stroke-linecap="round" stroke-linejoin="round"/>
<path d="M160.521 83.7988L171.084 85.7235C171.084 85.7235 174.925 88.841 177.084 96.0427C178.396 100.442 179.36 104.938 179.967 109.488L170.84 109.976L178.069 117.205C178.069 117.205 175.901 120.323 171.346 127.046C167.748 132.114 163.824 136.943 159.599 141.503L172.973 158.717C172.973 158.717 156.645 155.103 146.56 144.07C136.476 133.037 130.503 116.455 130.503 116.455L138.428 110.211L130.024 108.531C130.024 108.531 128.344 94.85 137.253 85.9404C146.163 77.0308 160.521 83.7988 160.521 83.7988Z" fill="#004AAD" stroke="#263238" stroke-width="4.19254" stroke-linecap="round" stroke-linejoin="round"/>
<path d="M136.739 89.564C136.739 89.564 139.541 95.1122 140.101 105.413C140.535 113.455 144.754 123.702 148.477 130.949C151.432 136.714 154.08 140.582 154.269 139.985C154.269 139.985 155.824 137.492 158.309 130.226C158.914 128.492 159.565 126.467 160.269 124.127C163.884 112.118 166.992 92.6724 165.556 88.8321C164.881 86.939 164.078 85.0943 163.152 83.311C151.622 98.9254 136.739 89.564 136.739 89.564Z" fill="white" stroke="#263238" stroke-width="4.19254" stroke-linecap="round" stroke-linejoin="round"/>
<path d="M151.385 122.469L148.475 130.954C151.43 136.719 154.078 140.586 154.268 139.99C154.268 139.99 155.822 137.496 158.307 130.231L154.268 122.939L158.28 115.43L153.545 110.686L147.066 117.173L151.385 122.469Z" fill="#263238" stroke="#263238" stroke-width="4.19254" stroke-linecap="round" stroke-linejoin="round"/>
<path d="M161.467 118.858L153.542 110.689L143.892 119.798" stroke="#263238" stroke-width="4.19254" stroke-linecap="round" stroke-linejoin="round"/>
<path d="M163.145 83.3232C162.874 88.1607 161.903 92.9334 160.262 97.4919C158.444 102.095 156.193 106.516 153.539 110.694L142.235 94.6093C142.235 94.6093 154.497 95.8111 163.145 83.3232Z" stroke="#263238" stroke-width="4.19254" stroke-linecap="round" stroke-linejoin="round"/>
<path d="M128.803 57.8733C128.803 57.8733 125.369 57.3401 125.369 62.0299C125.369 66.7196 127.357 72.4937 127.357 72.4937L128.803 57.8733Z" fill="white" stroke="#263238" stroke-width="4.19254" stroke-linecap="round" stroke-linejoin="round"/>
<path d="M130.015 40.5801C130.015 40.5801 127.611 62.4294 127.376 68.9173C127.142 75.4052 127.855 81.1612 130.015 84.0437C132.175 86.9263 140.858 98.4473 145.376 98.9262C149.894 99.4051 154.982 97.0105 156.897 95.3118C158.813 93.613 167.949 79.2185 167.949 79.2185C167.949 79.2185 174.906 78.7395 176.587 69.6131C178.268 60.4866 168.906 62.6553 168.906 62.6553C168.906 62.6553 173.949 54.7306 174.427 47.0499C174.906 39.3692 176.352 36.4777 155.696 35.9988C135.039 35.5199 130.015 40.5801 130.015 40.5801Z" fill="white" stroke="#263238" stroke-width="4.19254" stroke-linecap="round" stroke-linejoin="round"/>
<path d="M140.826 55.9512L135.061 75.8758L143.943 73.2372" stroke="#263238" stroke-width="4.19254" stroke-linecap="round" stroke-linejoin="round"/>
<path d="M152.822 70.8335L159.789 72.2793" stroke="#263238" stroke-width="4.19254" stroke-linecap="round" stroke-linejoin="round"/>
<path d="M156.193 72.0361C155.525 74.0752 154.29 75.8816 152.632 77.2435C150.974 78.6055 148.962 79.4666 146.832 79.7259C139.151 80.9186 135.311 79.4819 135.311 79.4819" stroke="#263238" stroke-width="4.19254" stroke-linecap="round" stroke-linejoin="round"/>
<path d="M154.269 75.8755C154.269 75.8755 154.504 87.8845 150.185 88.3634C145.866 88.8423 146.823 79.7249 146.823 79.7249C149.551 78.9855 152.089 77.6732 154.269 75.8755Z" fill="#263238" stroke="#263238" stroke-width="4.19254" stroke-linecap="round" stroke-linejoin="round"/>
<path d="M153.385 84.1797C152.797 86.3664 151.813 88.1827 150.186 88.3634C149.777 88.4211 149.359 88.3677 148.978 88.2087C148.596 88.0498 148.265 87.7911 148.017 87.4598C148.858 85.9869 151.758 84.767 153.385 84.1797Z" fill="white" stroke="#263238" stroke-width="4.19254" stroke-linecap="round" stroke-linejoin="round"/>
<path d="M151.289 61.4681C151.289 62.7964 151.877 63.8717 152.608 63.8717C153.34 63.8717 153.928 62.7964 153.928 61.4681C153.928 60.1398 153.34 59.0645 152.608 59.0645C151.877 59.0645 151.289 60.1398 151.289 61.4681Z" fill="#263238"/>
<path d="M135.179 59.3108C135.179 60.6391 135.775 61.7144 136.507 61.7144C137.239 61.7144 137.826 60.6391 137.826 59.3108C137.826 57.9825 137.23 56.9072 136.507 56.9072C135.784 56.9072 135.179 57.9825 135.179 59.3108Z" fill="#263238"/>
<path d="M156.914 57.3892C155.792 56.1142 154.37 55.139 152.777 54.5521C151.183 53.9652 149.468 53.7849 147.788 54.0278" stroke="#263238" stroke-width="4.19254" stroke-linecap="round" stroke-linejoin="round"/>
<path d="M140.104 53.069C140.104 53.069 136.986 47.304 131.971 50.1865" stroke="#263238" stroke-width="4.19254" stroke-linecap="round" stroke-linejoin="round"/>
<path d="M155.47 41.0598C155.47 41.0598 162.907 39.858 161.226 42.0267C159.545 44.1953 155.705 46.8248 157.611 48.5056C159.518 50.1863 164.334 53.0236 164.09 54.5055C163.846 55.9875 163.376 61.9513 164.09 63.3971C164.804 64.8428 166.494 65.0778 168.175 64.8338C169.855 64.5898 172.259 60.2706 173.217 59.0688C174.175 57.867 182.822 49.2285 181.141 42.2616C179.461 35.2948 161.452 29.7737 161.452 29.7737C161.452 29.7737 149.949 16.8159 142.241 16.572C134.533 16.328 137.443 23.5388 137.723 24.2527C138.003 24.9665 126.681 23.5388 124.521 30.4966C122.362 37.4544 123.075 39.3791 132.925 42.0267C142.774 44.6743 155.47 41.0598 155.47 41.0598Z" fill="#263238" stroke="#263238" stroke-width="4.19254" stroke-linecap="round" stroke-linejoin="round"/>
<path d="M4.01537 31.4736L23.5876 36.5339L19.5394 38.5579L30.6719 41.9375L8.0726 38.9013L13.8015 36.1995L4.01537 31.4736Z" fill="#263238"/>
<path d="M-0.000875473 79.1202L19.7972 75.0269L17.0503 78.6232L28.5352 76.7437L6.91177 83.9907L10.8696 79.0389L-0.000875473 79.1202Z" fill="#263238"/>
<path d="M21.2883 111.749L37.9599 100.309L36.8213 104.691L46.6797 98.5107L29.5472 113.574L31.2731 107.475L21.2883 111.749Z" fill="#263238"/>
</svg>
