<svg width="22" height="20" viewBox="0 0 22 20" fill="none" xmlns="http://www.w3.org/2000/svg">
<path d="M8.1664 0.381876C7.28793 0.377303 6.42044 0.767662 5.83618 1.41138C4.82209 2.52868 3.7071 4.32537 2.19821 4.32537C1.67582 4.32537 1.17482 4.52953 0.805427 4.89295C0.436037 5.25636 0.228516 5.74926 0.228516 6.2632V8.20104C0.228516 8.45801 0.332276 8.70446 0.516971 8.88616C0.701666 9.06787 0.952166 9.16995 1.21336 9.16995H8.62363C9.4263 9.16995 10.077 8.51926 10.077 7.71658V7.24805C10.077 6.70413 10.5179 6.2632 11.0618 6.2632C11.6058 6.2632 12.0467 6.70413 12.0467 7.24805V7.71658C12.0467 8.51926 12.6974 9.16995 13.5001 9.16995H20.9103C21.1715 9.16995 21.422 9.06787 21.6067 8.88616C21.7914 8.70446 21.8952 8.45801 21.8952 8.20104V6.2632C21.8952 5.74926 21.6877 5.25636 21.3183 4.89295C20.9489 4.52953 20.4479 4.32537 19.9255 4.32537C18.408 4.32537 17.2828 2.52802 16.2476 1.41843C15.0965 0.184486 12.8907 -0.0811617 11.6232 1.65116C11.3422 2.01984 10.7862 2.01637 10.5097 1.64421L10.5005 1.63178C9.88003 0.769443 9.02321 0.391565 8.1664 0.381876ZM8.1073 2.38753C8.98382 2.38753 9.427 3.43396 8.80655 4.04438C8.18609 4.6548 7.12246 4.21879 7.12246 3.35645C7.12246 3.09948 7.22622 2.85303 7.41091 2.67132C7.59561 2.48962 7.84611 2.38753 8.1073 2.38753ZM14.0164 2.38753C14.8929 2.38753 15.3361 3.43396 14.7156 4.04438C14.0952 4.6548 13.0315 4.21879 13.0315 3.35645C13.0315 3.09948 13.1353 2.85303 13.32 2.67132C13.5047 2.48962 13.7552 2.38753 14.0164 2.38753ZM5.64518 10.1389C3.19756 10.1389 1.21336 12.1231 1.21336 14.5707V17.8902C1.21336 18.4042 1.42089 18.8971 1.79027 19.2605C2.15966 19.6239 2.66067 19.828 3.18306 19.828H18.9406C19.463 19.828 19.964 19.6239 20.3334 19.2605C20.7028 18.8971 20.9103 18.4042 20.9103 17.8902V14.5707C20.9103 12.1231 18.9261 10.1389 16.4785 10.1389H15.9224C13.7819 10.1389 12.0467 11.8741 12.0467 14.0145V16.9054C12.0467 17.4493 11.6058 17.8902 11.0618 17.8902C10.5179 17.8902 10.077 17.4493 10.077 16.9054V14.0145C10.077 11.8741 8.34181 10.1389 6.20133 10.1389H5.64518Z" fill="#0D47AB"/>
</svg>
