<svg width="27" height="22" viewBox="0 0 27 22" fill="none" xmlns="http://www.w3.org/2000/svg">
<mask id="mask0_794_4232" style="mask-type:luminance" maskUnits="userSpaceOnUse" x="0" y="0" width="27" height="22">
<path d="M2.73047 10.3764C2.73047 5.96166 6.30931 2.38281 10.724 2.38281H16.4036C20.8183 2.38281 24.3971 5.96165 24.3971 10.3764V12.6053C24.3971 15.789 21.8162 18.3699 18.6325 18.3699H17.3887C16.6731 18.3699 15.9863 18.6512 15.4762 19.153C14.415 20.197 12.7126 20.197 11.6514 19.153C11.1413 18.6512 10.4545 18.3699 9.73895 18.3699H8.49515C5.3114 18.3699 2.73047 15.789 2.73047 12.6053V10.3764Z" fill="white" stroke="white" stroke-width="4" stroke-linecap="round" stroke-linejoin="round"/>
<path d="M13.0216 10.376H14.1066M18.4388 10.376H19.5216M7.60547 10.376H8.68826" stroke="black" stroke-width="4" stroke-linecap="round"/>
</mask>
<g mask="url(#mask0_794_4232)">
<path d="M0.566406 11.9753C0.566406 4.91169 6.29255 -0.814453 13.3561 -0.814453H13.7767C20.8403 -0.814453 26.5664 4.91169 26.5664 11.9753C26.5664 19.0388 20.8403 24.765 13.7767 24.765H13.3561C6.29255 24.765 0.566406 19.0388 0.566406 11.9753Z" fill="#0D47AB"/>
</g>
</svg>
