<svg width="23" height="22" viewBox="0 0 23 22" fill="none" xmlns="http://www.w3.org/2000/svg">
<path fill-rule="evenodd" clip-rule="evenodd" d="M6.95797 5.05333C6.95797 3.79702 7.46525 2.59217 8.3682 1.70382C9.27115 0.815474 10.4958 0.316406 11.7728 0.316406C13.0498 0.316406 14.2744 0.815474 15.1774 1.70382C16.0803 2.59217 16.5876 3.79702 16.5876 5.05333C16.5876 6.30965 16.0803 7.5145 15.1774 8.40285C14.2744 9.2912 13.0498 9.79026 11.7728 9.79026C10.4958 9.79026 9.27115 9.2912 8.3682 8.40285C7.46525 7.5145 6.95797 6.30965 6.95797 5.05333ZM6.95797 12.1587C5.36176 12.1587 3.83093 12.7826 2.70224 13.893C1.57355 15.0034 0.939453 16.5095 0.939453 18.0799C0.939453 19.0221 1.31991 19.9258 1.99712 20.592C2.67434 21.2583 3.59284 21.6326 4.55056 21.6326H18.995C19.9527 21.6326 20.8712 21.2583 21.5485 20.592C22.2257 19.9258 22.6061 19.0221 22.6061 18.0799C22.6061 16.5095 21.972 15.0034 20.8433 13.893C19.7146 12.7826 18.1838 12.1587 16.5876 12.1587H6.95797Z" fill="#0D47AB"/>
</svg>
